<svg xmlns="http://www.w3.org/2000/svg" width="22.653" height="22.654" viewBox="0 0 22.653 22.654">
  <g id="blueprint" transform="translate(-0.005)">
    <g id="Page-1_5_" transform="translate(0.005 0)">
      <g id="_x30_06---Draw-Blueprint" transform="translate(0 0)">
        <path id="Shape_33_" d="M359.363,202.69l-.155,1.377a.279.279,0,0,0,.081.228.27.27,0,0,0,.231.081l1.379-.157c.027,0,.051-.016.078-.022l-1.593-1.593A.761.761,0,0,0,359.363,202.69Z" transform="translate(-345.859 -195.074)" fill="#ffd965"/>
        <path id="Rectangle-path_3_" d="M0,0H6.234V2.5H0Z" transform="translate(14.014 6.877) rotate(-45)" fill="#ffd965"/>
        <path id="Rectangle-path_1_" d="M0,0H.848V2.5H0Z" transform="translate(18.991 1.893) rotate(-45)" fill="#ffd965"/>
        <path id="Shape_32_" d="M545.043,1.9a.414.414,0,0,0,.127-.3.424.424,0,0,0-.127-.3L543.875.127a.423.423,0,0,0-.3-.127.415.415,0,0,0-.3.125l-.6.594,1.769,1.769Z" transform="translate(-522.516 0)" fill="#ffd965"/>
        <path id="Shape_31_" d="M2.432,16.99h.809a.4.4,0,0,0,.4-.4V.4a.4.4,0,0,0-.4-.4H2.432A2.43,2.43,0,0,0,0,2.427V18.088a3.23,3.23,0,0,1,2.427-1.1Z" transform="translate(-0.005 0)" fill="#ffd965"/>
        <path id="Shape_30_" d="M2.549,169.4h19.7a.4.4,0,0,0,.4-.4V152.812a.4.4,0,0,0-.4-.4H19.908l-3.841,3.843a1.584,1.584,0,0,1-.93.443c-1.365.153-1.378.164-1.5.164H7.691v4.45H17.4v-2.023a.4.4,0,1,1,.809,0v6.068a.809.809,0,0,1-.809.809H9.309a.4.4,0,0,1,0-.809h2.832v-3.236H7.691v5.663a.4.4,0,0,1-.809,0V156.857H5.668a.4.4,0,1,1,0-.809h6.921a1.077,1.077,0,0,1-.038-.4l.153-1.378a1.562,1.562,0,0,1,.459-.944l.919-.919H4.455v10.922a1.214,1.214,0,0,1-1.214,1.214H2.432A2.43,2.43,0,0,0,.005,166.97v.089A2.508,2.508,0,0,0,2.549,169.4Z" transform="translate(-0.005 -146.744)" fill="#ffd965"/>
        <path id="Rectangle-path_2_" d="M348.363,413.676h4.45v3.236h-4.45Z" transform="translate(-335.418 -398.304)" fill="#ffd965"/>
      </g>
    </g>
  </g>
</svg>
