<svg xmlns="http://www.w3.org/2000/svg" width="58.372" height="58.37" viewBox="0 0 58.372 58.37">
  <path id="cash-register-solid" d="M58.178,43.184l-3.044-18.24a3.649,3.649,0,0,0-3.6-3.044H23.624V14.6H34.568a1.829,1.829,0,0,0,1.824-1.824V1.824A1.829,1.829,0,0,0,34.568,0H5.384A1.829,1.829,0,0,0,3.559,1.824V12.768a1.829,1.829,0,0,0,1.824,1.824H16.328v7.3H6.649a3.658,3.658,0,0,0-3.6,3.044L0,43.173a7.072,7.072,0,0,0-.1,1.2V54.721A3.644,3.644,0,0,0,3.548,58.37H54.621a3.644,3.644,0,0,0,3.648-3.648V44.381A6.053,6.053,0,0,0,58.178,43.184ZM31.832,28.273a1.829,1.829,0,0,1,1.824-1.824H35.48A1.829,1.829,0,0,1,37.3,28.273V30.1a1.829,1.829,0,0,1-1.824,1.824H33.656A1.829,1.829,0,0,1,31.832,30.1Zm-3.648,7.3h1.824a1.829,1.829,0,0,1,1.824,1.824v1.824a1.829,1.829,0,0,1-1.824,1.824H28.184a1.829,1.829,0,0,1-1.824-1.824V37.393A1.829,1.829,0,0,1,28.184,35.569Zm-3.648-9.12a1.829,1.829,0,0,1,1.824,1.824V30.1a1.829,1.829,0,0,1-1.824,1.824H22.712A1.829,1.829,0,0,1,20.888,30.1V28.273a1.829,1.829,0,0,1,1.824-1.824ZM9.032,9.12V5.472H30.92V9.12Zm4.56,22.8H11.768A1.829,1.829,0,0,1,9.944,30.1V28.273a1.829,1.829,0,0,1,1.824-1.824h1.824a1.829,1.829,0,0,1,1.824,1.824V30.1A1.829,1.829,0,0,1,13.592,31.921Zm1.824,7.3V37.393a1.829,1.829,0,0,1,1.824-1.824h1.824a1.829,1.829,0,0,1,1.824,1.824v1.824a1.829,1.829,0,0,1-1.824,1.824H17.24A1.829,1.829,0,0,1,15.416,39.217ZM40.04,51.985a.915.915,0,0,1-.912.912H19.064a.915.915,0,0,1-.912-.912V50.161a.915.915,0,0,1,.912-.912H39.128a.915.915,0,0,1,.912.912Zm2.736-12.768a1.829,1.829,0,0,1-1.824,1.824H39.128A1.829,1.829,0,0,1,37.3,39.217V37.393a1.829,1.829,0,0,1,1.824-1.824h1.824a1.829,1.829,0,0,1,1.824,1.824Zm5.472-9.12a1.829,1.829,0,0,1-1.824,1.824H44.6A1.829,1.829,0,0,1,42.777,30.1V28.273A1.829,1.829,0,0,1,44.6,26.449h1.824a1.829,1.829,0,0,1,1.824,1.824Z" transform="translate(0.1)" fill="#2792e0"/>
</svg>
