<svg xmlns="http://www.w3.org/2000/svg" width="81.442" height="40.721" viewBox="0 0 81.442 40.721">
  <path id="language-solid_1_" data-name="language-solid (1)" d="M19.355,113.841c-.445-1.54-.993-4.225-.993-4.225H18.3s-.547,2.685-.993,4.225l-1.413,4.772h4.848ZM78.388,96H42.757v40.721H78.388a3.047,3.047,0,0,0,3.054-3.054V99.054A3.047,3.047,0,0,0,78.388,96Zm-3.054,15.27a1.532,1.532,0,0,1-1.527,1.527H72.356a22.8,22.8,0,0,1-5.434,8.9,39.452,39.452,0,0,0,3.321,2.291,1.531,1.531,0,0,1,.522,2.062l-1.005,1.769a1.532,1.532,0,0,1-2.125.547,44.277,44.277,0,0,1-4.5-3.169,44.877,44.877,0,0,1-4.5,3.169,1.532,1.532,0,0,1-2.125-.547L55.5,126.045a1.526,1.526,0,0,1,.534-2.062,36.3,36.3,0,0,0,3.321-2.291,29.528,29.528,0,0,1-2.672-3.27,1.522,1.522,0,0,1,.471-2.176l.827-.5.929-.547a1.539,1.539,0,0,1,2.036.433,24.265,24.265,0,0,0,2.214,2.66,19.465,19.465,0,0,0,3.818-5.5H52.429A1.532,1.532,0,0,1,50.9,111.27v-2.036a1.532,1.532,0,0,1,1.527-1.527h8.144v-2.036a1.532,1.532,0,0,1,1.527-1.527h2.036a1.532,1.532,0,0,1,1.527,1.527v2.036h8.144a1.532,1.532,0,0,1,1.527,1.527ZM0,99.054v34.613a3.047,3.047,0,0,0,3.054,3.054H38.685V96H3.054A3.047,3.047,0,0,0,0,99.054Zm7.5,27.5,7.317-21.519A1.521,1.521,0,0,1,16.263,104H20.4a1.551,1.551,0,0,1,1.451,1.031l7.317,21.519a1.531,1.531,0,0,1-1.451,2.023H24.8a1.527,1.527,0,0,1-1.463-1.094l-1.2-4.059H14.481l-1.158,4.047a1.539,1.539,0,0,1-1.463,1.107H8.946A1.537,1.537,0,0,1,7.5,126.554Z" transform="translate(0 -96)" fill="#2792e0"/>
</svg>
