<svg xmlns="http://www.w3.org/2000/svg" width="68.432" height="54.746" viewBox="0 0 68.432 54.746">
  <path id="laptop-code-solid" d="M27.269,27.977a1.711,1.711,0,0,0,2.42,0L30.9,26.768a1.711,1.711,0,0,0,0-2.42L27.079,20.53,30.9,16.71a1.711,1.711,0,0,0,0-2.42l-1.209-1.209a1.711,1.711,0,0,0-2.42,0L21.03,19.319a1.711,1.711,0,0,0,0,2.42Zm10.266-1.208,1.209,1.209a1.711,1.711,0,0,0,2.42,0L47.4,21.74a1.711,1.711,0,0,0,0-2.42l-6.238-6.238a1.711,1.711,0,0,0-2.42,0l-1.209,1.209a1.711,1.711,0,0,0,0,2.42l3.818,3.818-3.818,3.819a1.711,1.711,0,0,0,0,2.42ZM66.721,44.481H40.8A3.371,3.371,0,0,1,37.3,47.9h-6.5a3.631,3.631,0,0,1-3.5-3.422H1.711A1.716,1.716,0,0,0,0,46.192V47.9a6.863,6.863,0,0,0,6.843,6.843H61.589A6.863,6.863,0,0,0,68.432,47.9V46.192A1.716,1.716,0,0,0,66.721,44.481ZM61.589,5.132A5.147,5.147,0,0,0,56.456,0H11.976A5.147,5.147,0,0,0,6.843,5.132V41.059H61.589ZM54.746,34.216H13.686V6.843H54.746Z" fill="#2792e0"/>
</svg>
