<svg xmlns="http://www.w3.org/2000/svg" width="17.353" height="16.63" viewBox="0 0 17.353 16.63">
  <path id="line" d="M8.676.5C3.894.5,0,3.68,0,7.588c0,3.5,3.087,6.433,7.256,6.99.283.06.667.188.765.429a1.789,1.789,0,0,1,.027.786l-.119.742c-.033.219-.174.863.758.469a27.976,27.976,0,0,0,6.823-5.075,6.291,6.291,0,0,0,1.842-4.342C17.353,3.68,13.459.5,8.676.5ZM5.28,9.912H3.555A.46.46,0,0,1,3.1,9.454V5.983a.456.456,0,1,1,.911,0V9H5.28a.458.458,0,0,1,0,.916Zm1.783-.458a.455.455,0,1,1-.91,0V5.983a.455.455,0,1,1,.91,0Zm4.151,0a.458.458,0,0,1-.312.434.467.467,0,0,1-.144.022.446.446,0,0,1-.369-.182L8.623,7.315V9.453a.454.454,0,1,1-.909,0V5.983a.456.456,0,0,1,.311-.433.421.421,0,0,1,.14-.024.467.467,0,0,1,.358.185L10.3,8.134V5.983a.456.456,0,1,1,.911,0ZM14,7.26a.459.459,0,0,1,0,.918H12.733V9H14a.458.458,0,0,1,0,.916H12.277a.458.458,0,0,1-.453-.458V5.983a.458.458,0,0,1,.456-.458H14a.458.458,0,0,1,0,.917H12.733V7.26Z" transform="translate(0 -0.5)"/>
</svg>
