<svg xmlns="http://www.w3.org/2000/svg" width="58.151" height="40.706" viewBox="0 0 58.151 40.706">
  <path id="money-check-alt-solid" d="M55.244,32H2.908A2.908,2.908,0,0,0,0,34.908V69.8a2.908,2.908,0,0,0,2.908,2.908H55.244A2.908,2.908,0,0,0,58.151,69.8V34.908A2.908,2.908,0,0,0,55.244,32ZM15.992,58.884v1.465a.727.727,0,0,1-.727.727H13.811a.727.727,0,0,1-.727-.727v-1.48a5.2,5.2,0,0,1-2.85-1.031.728.728,0,0,1-.052-1.1l1.068-1.019a.746.746,0,0,1,.92-.066,2.188,2.188,0,0,0,1.165.338h2.554a1.142,1.142,0,0,0,1.072-1.2,1.186,1.186,0,0,0-.8-1.157l-4.089-1.227a4.112,4.112,0,0,1-2.869-3.942,4.046,4.046,0,0,1,3.877-4.1V42.9a.727.727,0,0,1,.727-.727h1.454a.727.727,0,0,1,.727.727v1.48a5.2,5.2,0,0,1,2.85,1.031.728.728,0,0,1,.052,1.1l-1.068,1.019a.746.746,0,0,1-.92.066,2.18,2.18,0,0,0-1.165-.338H13.186a1.142,1.142,0,0,0-1.072,1.2,1.186,1.186,0,0,0,.8,1.157L17,50.847a4.112,4.112,0,0,1,2.869,3.942,4.046,4.046,0,0,1-3.877,4.1ZM37.8,57.441a.727.727,0,0,1-.727.727H26.9a.727.727,0,0,1-.727-.727V55.987a.727.727,0,0,1,.727-.727H37.072a.727.727,0,0,1,.727.727Zm14.538,0a.727.727,0,0,1-.727.727H44.341a.727.727,0,0,1-.727-.727V55.987a.727.727,0,0,1,.727-.727h7.269a.727.727,0,0,1,.727.727Zm0-8.723a.727.727,0,0,1-.727.727H26.9a.727.727,0,0,1-.727-.727V47.265a.727.727,0,0,1,.727-.727H51.609a.727.727,0,0,1,.727.727Z" transform="translate(0 -32)" fill="#2792e0"/>
</svg>
