<svg xmlns="http://www.w3.org/2000/svg" width="72.962" height="58.37" viewBox="0 0 72.962 58.37">
  <path id="network-wired-solid" d="M72.962,30.1V28.273a1.824,1.824,0,0,0-1.824-1.824H39.217v-4.56h8.208a3.649,3.649,0,0,0,3.648-3.648V3.648A3.649,3.649,0,0,0,47.425,0H25.537a3.649,3.649,0,0,0-3.648,3.648V18.24a3.649,3.649,0,0,0,3.648,3.648h8.208v4.56H1.824A1.824,1.824,0,0,0,0,28.273V30.1a1.824,1.824,0,0,0,1.824,1.824H13.68v4.56H7.3a3.649,3.649,0,0,0-3.648,3.648V54.721A3.649,3.649,0,0,0,7.3,58.37h18.24a3.649,3.649,0,0,0,3.648-3.648V40.129a3.649,3.649,0,0,0-3.648-3.648H19.152v-4.56H53.809v4.56H47.425a3.649,3.649,0,0,0-3.648,3.648V54.721a3.649,3.649,0,0,0,3.648,3.648h18.24a3.649,3.649,0,0,0,3.648-3.648V40.129a3.649,3.649,0,0,0-3.648-3.648H59.282v-4.56H71.138A1.824,1.824,0,0,0,72.962,30.1Zm-43.777-15.5V7.3H43.777v7.3Zm-7.3,36.481H10.944v-7.3H21.889Zm40.129,0H51.073v-7.3H62.018Z" fill="#2792e0"/>
</svg>
