<svg xmlns="http://www.w3.org/2000/svg" width="20.443" height="16.605" viewBox="0 0 20.443 16.605">
  <path id="sosial-04" d="M18.344,4.138c.013.182.013.363.013.545A11.841,11.841,0,0,1,6.434,16.6,11.841,11.841,0,0,1,0,14.723a8.69,8.69,0,0,0,1.012.052,8.391,8.391,0,0,0,5.2-1.79,4.2,4.2,0,0,1-3.92-2.906,5.3,5.3,0,0,0,.792.065A4.438,4.438,0,0,0,4.188,10,4.191,4.191,0,0,1,.828,5.889V5.837a4.22,4.22,0,0,0,1.894.529A4.2,4.2,0,0,1,1.427.764a11.909,11.909,0,0,0,8.64,4.385,4.694,4.694,0,0,1-.1-.96,4.194,4.194,0,0,1,7.252-2.867A8.233,8.233,0,0,0,19.874.31,4.175,4.175,0,0,1,18.032,2.62a8.4,8.4,0,0,0,2.411-.647,9.009,9.009,0,0,1-2.1,2.167Z" transform="translate(0 0.001)"/>
</svg>
