<svg xmlns="http://www.w3.org/2000/svg" width="16.633" height="16.63" viewBox="0 0 16.633 16.63">
  <path id="sosial-02" d="M16.577,4.888A4.918,4.918,0,0,0,15.234,1.4,4.96,4.96,0,0,0,11.749.061c-1.373-.078-5.488-.078-6.861,0A4.945,4.945,0,0,0,1.4,1.4,4.937,4.937,0,0,0,.061,4.883c-.078,1.374-.078,5.489,0,6.862A4.923,4.923,0,0,0,1.4,15.23a4.961,4.961,0,0,0,3.484,1.343c1.373.078,5.489.078,6.861,0a4.922,4.922,0,0,0,3.484-1.343,4.959,4.959,0,0,0,1.343-3.484C16.655,10.373,16.655,6.261,16.577,4.888ZM11.092,8.317A2.773,2.773,0,1,1,10.8,7.082a2.773,2.773,0,0,1,.294,1.235Zm.672-4.438a1,1,0,1,1,.995.994,1,1,0,0,1-.995-.994Zm3.039,9.34A2.806,2.806,0,0,1,13.222,14.8c-1.094.434-3.693.334-4.9.334s-3.811.1-4.9-.334a2.8,2.8,0,0,1-1.581-1.581C1.4,12.125,1.5,9.527,1.5,8.317c0-.329-.007-.76-.009-1.235H4.237a4.264,4.264,0,1,0,8.164,0h2.744c0,.475-.009.907-.009,1.235C15.137,9.529,15.237,12.128,14.8,13.219Z" transform="translate(-0.002 -0.003)"/>
</svg>
