<svg xmlns="http://www.w3.org/2000/svg" width="58" height="58" viewBox="0 0 58 58">
  <g id="statistics" transform="translate(0 0)">
    <path id="Path_172" data-name="Path 172" d="M36.1,27.188a5.072,5.072,0,0,0,3.529-1.433l5.03,2.515a4.993,4.993,0,0,0-.062.618,5.1,5.1,0,1,0,10.2,0,5.036,5.036,0,0,0-.511-2.184L61.1,19.88a5.036,5.036,0,0,0,2.184.511,5.1,5.1,0,0,0,5.1-5.1,5.021,5.021,0,0,0-.254-1.51l5.929-4.445A5.094,5.094,0,1,0,71.781,5.1a5.021,5.021,0,0,0,.254,1.51l-5.929,4.445A5.076,5.076,0,0,0,58.7,17.477L51.875,24.3a5.009,5.009,0,0,0-5.712.922l-5.03-2.515a4.993,4.993,0,0,0,.062-.618,5.1,5.1,0,1,0-5.1,5.1Zm0,0" transform="translate(-27.488)" fill="#2792e0"/>
    <path id="Path_173" data-name="Path 173" d="M56.3,187.609H54.488V151.7a1.7,1.7,0,0,0-1.7-1.7h-6.8a1.7,1.7,0,0,0-1.7,1.7v35.91h-3.4V161.895a1.7,1.7,0,0,0-1.7-1.7H32.4a1.7,1.7,0,0,0-1.7,1.7v25.715H27.3V175.488a1.7,1.7,0,0,0-1.7-1.7H18.8a1.7,1.7,0,0,0-1.7,1.7v12.121h-3.4V168.691a1.7,1.7,0,0,0-1.7-1.7h-6.8a1.7,1.7,0,0,0-1.7,1.7v18.918H1.7a1.7,1.7,0,0,0,0,3.4H56.3a1.7,1.7,0,0,0,0-3.4Zm0,0" transform="translate(0 -133.008)" fill="#2792e0"/>
  </g>
</svg>
