<svg xmlns="http://www.w3.org/2000/svg" width="58.37" height="58.37" viewBox="0 0 58.37 58.37">
  <path id="swatchbook-solid" d="M49.553,19.119h0L39.274,8.819a3.629,3.629,0,0,0-5.13-.008h0l-.008.008-8.6,8.61V48.337L49.553,24.271A3.648,3.648,0,0,0,49.553,19.119Zm5.169,17.362H42.533L21.282,57.744c-.235.236-.513.408-.762.626h34.2a3.648,3.648,0,0,0,3.648-3.648V40.129A3.648,3.648,0,0,0,54.721,36.481ZM21.889,3.648A3.648,3.648,0,0,0,18.24,0H3.648A3.648,3.648,0,0,0,0,3.648V47.425a10.944,10.944,0,1,0,21.889,0ZM10.944,50.161a2.736,2.736,0,1,1,2.736-2.736A2.736,2.736,0,0,1,10.944,50.161Zm3.648-20.977H7.3v-7.3h7.3Zm0-14.592H7.3V7.3h7.3Z" fill="#2792e0"/>
</svg>
