<svg xmlns="http://www.w3.org/2000/svg" width="16.605" height="16.605" viewBox="0 0 16.605 16.605">
  <g id="translate" transform="translate(0 0)">
    <path id="Path_3" data-name="Path 3" d="M1.459,12.713h8.3a.486.486,0,0,0,.461-.64L6.332.333A.486.486,0,0,0,5.87,0H1.459A1.461,1.461,0,0,0,0,1.459v9.794a1.461,1.461,0,0,0,1.459,1.459ZM3.924,3.957a2.416,2.416,0,0,1,1.72.713.487.487,0,1,1-.689.688A1.446,1.446,0,0,0,3.924,4.93a1.459,1.459,0,1,0,1.37,1.946H4.411a.486.486,0,0,1,0-.973H5.87a.486.486,0,0,1,.486.486A2.432,2.432,0,1,1,3.924,3.957Z" fill="#fff"/>
    <g id="Group_8" data-name="Group 8" transform="translate(8.562 3.957)">
      <path id="Path_4" data-name="Path 4" d="M270.579,122h-6.584l2.585,7.777a1.475,1.475,0,0,1-.056,1.063l-1.727,3.808h5.781a1.459,1.459,0,0,0,1.459-1.459v-9.73A1.459,1.459,0,0,0,270.579,122Zm-.519,4.832H270a6.329,6.329,0,0,1-1.254,2.314c.38.443.678.743.683.748a.486.486,0,0,1-.688.688c-.02-.02-.279-.28-.625-.676-.354.4-.62.663-.636.679a.486.486,0,0,1-.681-.694c.21-.207.45-.462.693-.744-.143-.185-.286-.38-.422-.581a.486.486,0,0,1,.8-.547c.079.117.161.232.245.344a6.113,6.113,0,0,0,.874-1.53h-2.826a.486.486,0,0,1,0-.973h1.459v-.486a.486.486,0,1,1,.973,0v.486h1.459a.486.486,0,1,1,0,.973Z" transform="translate(-263.995 -122)" fill="#fff"/>
    </g>
    <path id="Path_5" data-name="Path 5" d="M205.348,422c.919,2.78.844,2.754,1.111,2.875a.486.486,0,0,0,.644-.242L208.3,422Z" transform="translate(-198.688 -408.314)" fill="#fff"/>
  </g>
</svg>
