<svg xmlns="http://www.w3.org/2000/svg" width="32.366" height="22.654" viewBox="0 0 32.366 22.654">
  <path id="users-cog-solid_1_" data-name="users-cog-solid (1)" d="M30.878,47.739a5.933,5.933,0,0,0,0-2.155l1.3-.754a.366.366,0,0,0,.167-.43,7.59,7.59,0,0,0-1.679-2.9.369.369,0,0,0-.455-.071l-1.3.754A5.938,5.938,0,0,0,27.044,41.1V39.6a.368.368,0,0,0-.288-.359,7.631,7.631,0,0,0-3.348,0,.368.368,0,0,0-.288.359V41.1a5.938,5.938,0,0,0-1.866,1.077l-1.3-.754a.37.37,0,0,0-.455.071,7.59,7.59,0,0,0-1.679,2.9.373.373,0,0,0,.167.43l1.3.754a5.933,5.933,0,0,0,0,2.155l-1.3.754a.366.366,0,0,0-.167.43,7.628,7.628,0,0,0,1.679,2.9.369.369,0,0,0,.455.071l1.3-.754a5.938,5.938,0,0,0,1.866,1.077v1.507a.368.368,0,0,0,.288.359,7.631,7.631,0,0,0,3.348,0,.368.368,0,0,0,.288-.359V52.22a5.938,5.938,0,0,0,1.866-1.077l1.3.754a.37.37,0,0,0,.455-.071,7.59,7.59,0,0,0,1.679-2.9.373.373,0,0,0-.167-.43Zm-5.791,1.376a2.453,2.453,0,1,1,2.453-2.453A2.455,2.455,0,0,1,25.086,49.114ZM4.855,41.806a3.237,3.237,0,1,0-3.237-3.237A3.24,3.24,0,0,0,4.855,41.806Zm11.329,1.618c.1,0,.187-.025.283-.03A9.324,9.324,0,0,1,18.3,40.4a1.993,1.993,0,0,1,1.462-.637,1.944,1.944,0,0,1,.991.268l.4.233c.04-.025.081-.046.121-.071a5.6,5.6,0,0,0,.566-2.428,5.662,5.662,0,1,0-5.66,5.66Zm5.321,9.837c-.116-.061-.233-.132-.344-.2a2.5,2.5,0,0,1-1.391.5,2.01,2.01,0,0,1-1.462-.637,9.222,9.222,0,0,1-2.033-3.52,2.158,2.158,0,0,1,1.3-2.544q-.008-.2,0-.395l-.4-.233a2.06,2.06,0,0,1-.5-.41c-.167.01-.329.03-.5.03a7.984,7.984,0,0,1-3.465-.809h-.42a5.829,5.829,0,0,0-5.832,5.827v1.457A2.428,2.428,0,0,0,8.9,54.754H21.819a1.947,1.947,0,0,1-.314-1.027v-.465Zm-12.751-8.9a3.227,3.227,0,0,0-2.281-.941H3.237A3.24,3.24,0,0,0,0,46.661V48.28A1.617,1.617,0,0,0,1.618,49.9H4.952A7.417,7.417,0,0,1,8.755,44.365Z" transform="translate(0 -32.1)" fill="#ffd965"/>
</svg>
